<?xml version="1.0" encoding="UTF-8" standalone="no"?>
<!-- Created with Inkscape (http://www.inkscape.org/) -->

<svg
   width="1024"
   height="1024"
   viewBox="0 0 270.93333 270.93333"
   version="1.1"
   id="svg1"
   sodipodi:docname="piirustus.svg"
   inkscape:version="1.4.2 (f4327f4, 2025-05-13)"
 xmlns:inkscape="http://www.inkscape.org/namespaces/inkscape"
   xmlns:sodipodi="http://sodipodi.sourceforge.net/DTD/sodipodi-0.dtd"
   xmlns="http://www.w3.org/2000/svg"
   xmlns:svg="http://www.w3.org/2000/svg">
  <sodipodi:namedview
     id="namedview1"
     pagecolor="#ffffff"
     bordercolor="#000000"
     borderopacity="0.25"
     inkscape:showpageshadow="2"
     inkscape:pageopacity="0.0"
     inkscape:pagecheckerboard="0"
     inkscape:deskcolor="#d1d1d1"
     inkscape:document-units="mm"
     inkscape:zoom="0.99"
     inkscape:cx="512.12121"
     inkscape:cy="505.55556"
     inkscape:window-width="3440"
     inkscape:window-height="1369"
     inkscape:window-x="1912"
     inkscape:window-y="1072"
     inkscape:window-maximized="1"
     inkscape:current-layer="layer1" />
  <defs
     id="defs1">
    <inkscape:path-effect
       effect="bspline"
       id="path-effect4"
       is_visible="true"
       lpeversion="1.3"
       weight="33.333333"
       steps="2"
       helper_size="0"
       apply_no_weight="true"
       apply_with_weight="true"
       only_selected="false"
       uniform="false" />
    <inkscape:path-effect
       effect="bspline"
       id="path-effect3"
       is_visible="true"
       lpeversion="1.3"
       weight="33.333333"
       steps="2"
       helper_size="0"
       apply_no_weight="true"
       apply_with_weight="true"
       only_selected="false"
       uniform="false" />
    <inkscape:path-effect
       effect="fill_between_many"
       method="originald"
       linkedpaths="#path1,0,1|#path2,0,1|"
       id="path-effect2" />
  </defs>
  <g
     inkscape:label="Taso 1"
     inkscape:groupmode="layer"
     id="layer1">
    <path
       id="path4"
       style="fill:none;stroke:#ffd700;stroke-width:58.523;stroke-linejoin:round;stroke-miterlimit:7;stroke-dasharray:none;stroke-opacity:1"
       d="M 237.87784,135.46667 A 102.41116,102.41116 0 0 1 135.46667,237.87783 102.41116,102.41116 0 0 1 33.055496,135.46667 102.41116,102.41116 0 0 1 135.46667,33.055502 102.41116,102.41116 0 0 1 237.87784,135.46667 Z" />
    <path
       id="path1"
       style="fill:none;stroke:#000000;stroke-width:13.4847;stroke-linejoin:round;stroke-miterlimit:7;stroke-dasharray:none"
       d="M 263.83644,135.46666 A 128.36978,128.36978 0 0 1 135.46666,263.83644 128.36978,128.36978 0 0 1 7.0968781,135.46666 128.36978,128.36978 0 0 1 135.46666,7.0968781 128.36978,128.36978 0 0 1 263.83644,135.46666 Z"
       transform="matrix(1.002624,0,0,1.002624,-0.3554569,-0.3554569)" />
    <path
       id="path2"
       style="fill:none;stroke:#000000;stroke-width:38.8894988;stroke-linejoin:round;stroke-miterlimit:7;stroke-dasharray:none"
       transform="matrix(0.37419056,0,0,0.37419056,127.03999,45.205624)"
       d="M 200.43388,138.49802 V 343.93555 L 22.519757,446.65431 -155.39436,343.93555 V 138.49802 L 22.519755,35.779251 Z" />
  </g>
</svg>
